HIERARCHY
ROOT joint_Root
{
	OFFSET 0.0 0.0 0.0
	CHANNELS 6 Xposition Yposition Zposition Zrotation Xrotation Yrotation 
	JOINT Hips
	{
		OFFSET 4.5925 91.4895 -427.239
		CHANNELS 6 Xposition Yposition Zposition Zrotation Xrotation Yrotation 
		JOINT Spine
		{
			OFFSET 15.7357 0.0 0.0
			CHANNELS 6 Xposition Yposition Zposition Zrotation Xrotation Yrotation 
			JOINT Chest
			{
				OFFSET 8.98455 -0.406207 0.0
				CHANNELS 6 Xposition Yposition Zposition Zrotation Xrotation Yrotation 
				JOINT Neck
				{
					OFFSET 16.3773 0.0 0.0
					CHANNELS 6 Xposition Yposition Zposition Zrotation Xrotation Yrotation 
					JOINT Head
					{
						OFFSET 6.45672 0.0 0.0
						CHANNELS 6 Xposition Yposition Zposition Zrotation Xrotation Yrotation 
						End Site
						{
							OFFSET 0.0 0.0 0.0
						}
					}
				}
				JOINT Shoulder_L
				{
					OFFSET 12.9942 -0.242716 4.98039
					CHANNELS 6 Xposition Yposition Zposition Zrotation Xrotation Yrotation 
					JOINT UpperArm_L
					{
						OFFSET 5.34809 0.0 0.0
						CHANNELS 6 Xposition Yposition Zposition Zrotation Xrotation Yrotation 
						JOINT LowerArm_L
						{
							OFFSET 24.3286 1.87007e-05 0.0
							CHANNELS 6 Xposition Yposition Zposition Zrotation Xrotation Yrotation 
							JOINT Hand_L
							{
								OFFSET 22.2916 0.0 0.0
								CHANNELS 6 Xposition Yposition Zposition Zrotation Xrotation Yrotation 
								End Site
								{
									OFFSET 0.0 0.0 0.0
								}
							}
						}
					}
				}
				JOINT Shoulder_R
				{
					OFFSET 12.9945 -0.242716 -4.98039
					CHANNELS 6 Xposition Yposition Zposition Zrotation Xrotation Yrotation 
					JOINT UpperArm_R
					{
						OFFSET -5.34813 0.0 0.0
						CHANNELS 6 Xposition Yposition Zposition Zrotation Xrotation Yrotation 
						JOINT LowerArm_R
						{
							OFFSET -24.3289 0.000322201 0.0
							CHANNELS 6 Xposition Yposition Zposition Zrotation Xrotation Yrotation 
							JOINT Hand_R
							{
								OFFSET -22.2915 -0.000108084 0.0
								CHANNELS 6 Xposition Yposition Zposition Zrotation Xrotation Yrotation 
								End Site
								{
									OFFSET 0.0 0.0 0.0
								}
							}
						}
					}
				}
			}
		}
		JOINT UpperLeg_L
		{
			OFFSET -2.19248 -6.46944 0.0
			CHANNELS 6 Xposition Yposition Zposition Zrotation Xrotation Yrotation 
			JOINT LowerLeg_L
			{
				OFFSET 39.0811 0.0 -1.23785e-05
				CHANNELS 6 Xposition Yposition Zposition Zrotation Xrotation Yrotation 
				JOINT Foot_L
				{
					OFFSET 40.9854 0.0 -1.26872e-05
					CHANNELS 6 Xposition Yposition Zposition Zrotation Xrotation Yrotation 
					JOINT Toes_L
					{
						OFFSET 11.7543 0.0 0.0
						CHANNELS 6 Xposition Yposition Zposition Zrotation Xrotation Yrotation 
						End Site
						{
							OFFSET 0.0 0.0 0.0
						}
					}
				}
			}
		}
		JOINT UpperLeg_R
		{
			OFFSET -2.19251 6.46944 0.0
			CHANNELS 6 Xposition Yposition Zposition Zrotation Xrotation Yrotation 
			JOINT LowerLeg_R
			{
				OFFSET -39.0811 -0.00228153 -0.0401928
				CHANNELS 6 Xposition Yposition Zposition Zrotation Xrotation Yrotation 
				JOINT Foot_R
				{
					OFFSET -40.9854 0.0 0.0
					CHANNELS 6 Xposition Yposition Zposition Zrotation Xrotation Yrotation 
					JOINT Toes_R
					{
						OFFSET -11.7543 0.0 0.0
						CHANNELS 6 Xposition Yposition Zposition Zrotation Xrotation Yrotation 
						End Site
						{
							OFFSET 0.0 0.0 0.0
						}
					}
				}
			}
		}
	}
}
MOTION
Frames:	4
Frame Time:	0.0333333
0.000000 0.000000 0.000000 0.000000 0.000000 -0.000000 -3.465160 89.606600 -1.764520 89.561800 -2.009300 12.553900 15.735700 0.000005 -0.000001 87.226200 77.883800 -86.002600 8.984550 -0.406207 -0.000000 16.452800 -1.062040 2.604010 16.377300 -0.000001 -0.000001 8.087570 -4.318180 5.888650 6.456720 -0.000001 -0.000000 -3.931950 -4.510360 10.618500 12.994200 -0.242716 4.980390 -90.210900 0.717875 -73.625200 5.348090 -0.000007 -0.000001 -84.804200 -26.579000 -72.024700 24.328600 0.000019 0.000005 38.470000 -8.503490 -100.542000 22.291600 -0.000001 0.000005 31.265500 5.056840 6.085890 12.994500 -0.242716 -4.980390 88.802700 11.522800 -84.027000 -5.348130 -0.000001 -0.000004 -55.653800 34.469300 -21.266800 -24.328900 0.000322 -0.000009 1.648960 4.721370 -19.288500 -22.291500 -0.000108 -0.000004 12.393300 5.409230 -3.239680 -2.192480 -6.469440 -0.000000 -173.291000 -10.117200 -2.194090 39.081100 -0.000007 -0.000012 -0.282157 0.376420 36.855000 40.985400 -0.000006 -0.000013 -1.082790 4.971250 -71.712900 11.754300 -0.000000 0.000003 -0.000164 -0.001568 -16.637000 -2.192510 6.469440 -0.000001 176.443000 18.280200 179.054000 -39.081100 -0.002282 -0.040193 -0.196499 0.268391 36.663600 -40.985400 0.000008 0.000006 5.809510 8.466010 -73.513000 -11.754300 -0.000006 -0.000006 -0.002561 -0.035533 -18.018000
0.000000 0.000000 0.000000 0.000000 0.000000 -0.000000 -3.531950 89.615500 -1.753070 89.572800 -1.781640 12.560900 15.735700 0.000005 -0.000001 87.323200 77.869500 -86.112800 8.984550 -0.406207 -0.000000 16.482600 -1.023650 2.572220 16.377300 -0.000001 -0.000001 8.050990 -4.316280 5.917680 6.456720 -0.000001 -0.000000 -3.918590 -4.510600 10.609900 12.994200 -0.242716 4.980390 -90.200000 0.679533 -73.597700 5.348090 -0.000007 -0.000001 -85.254900 -26.721400 -72.006800 24.328600 0.000019 0.000005 38.246900 -8.535140 -100.663000 22.291600 -0.000001 0.000005 31.373100 5.046980 6.303620 12.994500 -0.242716 -4.980390 88.801100 11.571300 -84.043600 -5.348130 -0.000001 -0.000004 -55.514300 34.466000 -21.361500 -24.328900 0.000322 -0.000009 1.631460 4.666580 -19.306000 -22.291500 -0.000108 -0.000004 12.451400 5.406580 -3.152470 -2.192480 -6.469440 -0.000000 -173.301000 -9.939460 -2.187420 39.081100 -0.000007 -0.000012 -0.278124 0.371823 36.797100 40.985400 -0.000006 -0.000013 -1.106730 5.041960 -71.670300 11.754300 -0.000000 0.000003 -0.000170 -0.001614 -16.638700 -2.192510 6.469440 -0.000001 176.438000 18.403100 179.132000 -39.081100 -0.002282 -0.040193 -0.200258 0.274050 36.602500 -40.985400 0.000008 0.000006 5.789020 8.374740 -73.514100 -11.754300 -0.000006 -0.000006 -0.002318 -0.032632 -17.900100
0.000000 0.000000 0.000000 0.000000 0.000000 -0.000000 -3.596520 89.624100 -1.741540 89.568100 -1.544150 12.550400 15.735700 0.000005 -0.000001 87.563300 77.872100 -86.360500 8.984550 -0.406207 -0.000000 16.480500 -0.924048 2.542530 16.377300 -0.000001 -0.000001 8.036000 -4.325950 5.916810 6.456720 -0.000001 -0.000000 -3.882490 -4.527970 10.607200 12.994200 -0.242716 4.980390 -90.202400 0.686842 -73.579400 5.348090 -0.000007 -0.000001 -84.988100 -26.337400 -71.910600 24.328600 0.000019 0.000005 38.041900 -8.661220 -100.894000 22.291600 -0.000001 0.000005 31.519000 5.037650 6.507840 12.994500 -0.242716 -4.980390 88.800000 11.612100 -84.059100 -5.348130 -0.000001 -0.000004 -55.437300 34.380000 -21.384400 -24.328900 0.000322 -0.000009 1.667510 4.784840 -19.250400 -22.291500 -0.000108 -0.000004 12.411700 5.405580 -3.119520 -2.192480 -6.469440 -0.000000 -173.292000 -9.757890 -2.212680 39.081100 -0.000007 -0.000012 -0.279016 0.373657 36.749900 40.985400 -0.000006 -0.000013 -1.139500 5.099730 -71.623200 11.754300 -0.000000 0.000003 -0.000158 -0.001519 -16.635200 -2.192510 6.469440 -0.000001 176.457000 18.565300 179.189000 -39.081100 -0.002282 -0.040193 -0.198130 0.271772 36.543400 -40.985400 0.000008 0.000006 5.833820 8.281750 -73.525300 -11.754300 -0.000006 -0.000006 -0.002506 -0.034878 -17.991400
0.000000 0.000000 0.000000 0.000000 0.000000 -0.000000 -3.651170 89.627600 -1.730050 89.532000 -1.222380 12.553700 15.735700 0.000005 -0.000001 87.704000 77.874500 -86.501200 8.984550 -0.406207 -0.000000 16.477300 -0.865293 2.534130 16.377300 -0.000001 -0.000001 7.995720 -4.311570 5.887280 6.456720 -0.000001 -0.000000 -3.846260 -4.499590 10.618000 12.994200 -0.242716 4.980390 -90.201800 0.683119 -73.546600 5.348090 -0.000007 -0.000001 -84.139800 -25.561000 -71.782600 24.328600 0.000019 0.000005 38.098300 -8.934370 -101.204000 22.291600 -0.000001 0.000005 31.552400 5.038030 6.499850 12.994500 -0.242716 -4.980390 88.808600 11.610500 -84.100100 -5.348130 -0.000001 -0.000004 -55.384300 34.375000 -21.454900 -24.328900 0.000322 -0.000009 1.646530 4.766810 -19.092300 -22.291500 -0.000108 -0.000004 12.378700 5.405560 -3.118960 -2.192480 -6.469440 -0.000000 -173.273000 -9.469010 -2.236640 39.081100 -0.000007 -0.000012 -0.282184 0.378100 36.735400 40.985400 -0.000006 -0.000013 -1.153710 5.199780 -71.610200 11.754300 -0.000000 0.000003 -0.000160 -0.001531 -16.635700 -2.192510 6.469440 -0.000001 176.470000 18.787000 179.272000 -39.081100 -0.002282 -0.040193 -0.199490 0.274227 36.481400 -40.985400 0.000008 0.000006 5.795740 8.188910 -73.523700 -11.754300 -0.000006 -0.000006 -0.002268 -0.032018 -17.875100
